<svg xmlns="http://www.w3.org/2000/svg" viewBox="0 0 240 240">
  <radialGradient id="a" cx="97.71" cy="81.286" r="143.432" gradientUnits="userSpaceOnUse">
    <stop data-use-luminance-on-grayscale="true" offset="0" stop-color="#0E0E17" stop-opacity=".85"/>
    <stop data-use-luminance-on-grayscale="true" offset=".767" stop-color="#0E0E17"/>
  </radialGradient>
  <path fill="url(#a)" fill-rule="evenodd" d="M10 10h220v214H10z" clip-rule="evenodd"/>
  <path fill="#31C5F0" fill-rule="evenodd" d="M0 0v234h240V0H0zm10 10h220v214H10V10zm48 44.79c0-.66 1.415-1.155 2.24-1.155 6.435-.33 15.883-.495 25.782-.495 27.72 0 38.516 15.18 38.516 34.65 0 25.41-18.428 36.3-41.033 36.3-3.795 0-5.115-.166-7.755-.166v38.42c0 .826-.33 1.156-1.155 1.156h-15.44c-.825 0-1.155-.33-1.155-1.156V54.79zm17.75 53.13c2.31.164 4.125.164 8.085.164 11.715 0 22.718-4.125 22.718-19.965 0-12.71-7.868-19.14-21.233-19.14-3.96 0-7.755.16-9.57.33v38.61zm86.072-11.88c-7.92 0-10.56 3.96-10.56 7.26 0 3.63 1.815 6.104 12.376 11.55 15.675 7.59 20.625 14.85 20.625 25.574 0 16.006-12.21 24.586-28.71 24.586-8.745 0-16.188-1.816-20.478-4.29-.66-.33-.825-.825-.825-1.65v-14.685c0-.99.495-1.32 1.155-.826 6.27 4.12 13.547 5.94 20.148 5.94 7.92 0 11.22-3.3 11.22-7.76 0-3.63-2.31-6.766-12.375-12.045-14.19-6.767-20.13-13.697-20.13-25.246 0-12.87 10.065-23.596 27.554-23.596 8.58 0 14.638 1.32 17.938 2.804.825.494.99 1.32.99 1.98v13.7c0 .822-.495 1.32-1.485.99-4.454-2.64-11.007-4.29-17.443-4.29z" clip-rule="evenodd"/>
</svg>
