<svg xmlns="http://www.w3.org/2000/svg" viewBox="0 0 512 512">
  <g fill="none" fill-rule="evenodd">
    <path fill="#FDB300" d="M144.79 96.715L255.603 85l110.812 11.715 85.79 115.166-196.602 228.945L59 211.88l85.79-115.165z"/>
    <path fill="#EA6C00" d="M138.634 211.88l116.97 228.943L59 211.88"/>
    <path fill="#EA6C00" d="M372.57 211.88L255.603 440.824 452.205 211.88"/>
    <path fill="#FDAD00" d="M138.634 211.88h233.938l-116.97 228.943"/>
    <path fill="#FDD231" d="M255.603 85L144.79 96.715l-6.156 115.166"/>
    <path fill="#FDD231" d="M255.602 85l110.813 11.715 6.156 115.166"/>
    <path fill="#FDAD00" d="M452.206 211.88l-85.79-115.165 6.156 115.166M59 211.88l85.79-115.165-6.156 115.166"/>
    <path fill="#FEEEB7" d="M255.603 85l-116.97 126.88h233.94"/>
  </g>
</svg>
